<?xml version="1.0" encoding="UTF-8"?>
<svg width="80px" height="80px" viewBox="0 0 80 80" version="1.1" xmlns="http://www.w3.org/2000/svg" xmlns:xlink="http://www.w3.org/1999/xlink">
    <title>BEB87FF6-4119-4D69-9526-8FE5474AF8BC</title>
    <g id="Page-1" stroke="none" stroke-width="1" fill="none" fill-rule="evenodd">
        <g id="Resume" transform="translate(-680.000000, -5768.000000)">
            <g id="Group-chat-Copy" transform="translate(680.000000, 5768.000000)">
                <rect id="bound" x="0" y="0" width="80" height="80"></rect>
                <path d="M68.2587392,10 C72.9095581,10 76.6797918,13.7702337 76.6797918,18.4210526 L76.6797918,43.6842105 L76.7411485,60.9069194 C76.743116,61.4592006 76.2969986,61.908508 75.7447174,61.9104756 C75.4782678,61.9114248 75.2224575,61.8059981 75.0340481,61.6175887 L65.5217225,52.1052632 L53.332441,52.105 L53.3333333,36 C53.3333333,32.7616031 50.7677584,30.1224282 47.5582716,30.0041385 L47.3333333,30 L20.539441,30 L20.539441,18.4210526 C20.539441,13.7702337 24.3096746,10 28.9604936,10 L68.2587392,10 Z" id="Combined-Shape" fill="#ff7e15"></path>
                <path d="M39.9501865,36.6666667 C43.6320848,36.6666667 46.6168532,39.651435 46.6168532,43.3333333 L46.6168532,60 C46.6168532,63.6818983 43.6320848,66.6666667 39.9501865,66.6666667 L13.6692871,66.6666667 L8.39547926,71.7143917 C7.99649663,72.0962704 7.36348349,72.0824049 6.98160484,71.6834222 C6.80346202,71.4973006 6.7040268,71.2496054 6.7040268,70.9919698 L6.7040268,61.0808665 C6.6466725,60.7290653 6.61685316,60.368015 6.61685316,60 L6.61685316,43.3333333 C6.61685316,39.651435 9.60162149,36.6666667 13.2835198,36.6666667 L39.9501865,36.6666667 Z M39,53.3333333 L31,53.3333333 C30.4477153,53.3333333 30,53.7810486 30,54.3333333 L30,54.3333333 L30,55.6666667 C30,56.2189514 30.4477153,56.6666667 31,56.6666667 L31,56.6666667 L39,56.6666667 C39.5522847,56.6666667 40,56.2189514 40,55.6666667 L40,55.6666667 L40,54.3333333 C40,53.7810486 39.5522847,53.3333333 39,53.3333333 L39,53.3333333 Z M39,46.6666667 L21,46.6666667 C20.4477153,46.6666667 20,47.1143819 20,47.6666667 L20,47.6666667 L20,49 C20,49.5522847 20.4477153,50 21,50 L21,50 L39,50 C39.5522847,50 40,49.5522847 40,49 L40,49 L40,47.6666667 C40,47.1143819 39.5522847,46.6666667 39,46.6666667 L39,46.6666667 Z" id="Combined-Shape" fill="#FBCB88"></path>
            </g>
        </g>
    </g>
</svg>