<?xml version="1.0" encoding="utf-8"?>
<!-- Generator: Adobe Illustrator 25.4.1, SVG Export Plug-In . SVG Version: 6.00 Build 0)  -->
<svg version="1.1" id="Layer_3" xmlns="http://www.w3.org/2000/svg" xmlns:xlink="http://www.w3.org/1999/xlink" x="0px" y="0px"
	 width="901.2791748px" height="239.625946px" viewBox="0 0 901.2791748 239.625946"
	 style="enable-background:new 0 0 901.2791748 239.625946;" xml:space="preserve">
<style type="text/css">
	.st0{fill:#FF7E15;}
	.st1{fill:none;stroke:#FF7E15;stroke-width:3;stroke-linecap:round;stroke-linejoin:round;}
	.st2{fill:none;stroke:#FF7E15;stroke-width:2;stroke-linecap:round;stroke-linejoin:round;}
</style>
<g>
	<g>
		<path class="st0" d="M660.8538818,80.56604c-2.9299927-4.2600098-14.5999756-36.4299965-79.1300049-39.6499977
			c-87.9299927-4.3999939-80.75-4.7000122-141.5300293-36.4100037c0,0-47.8599854-12.6300049-110.1099854,4.3999939
			c-62.2399902,17.0299988-51.0899963,22.019989-105.4100037,25.2600098c0,0-21.730011,28.769989-5.5899963,69.289978
			c0,0,18.5,9.4000244,26.730011,9.4000244c0.4400024,0,1.6799927,0.0200195,3.6300049,0.0499878
			c-2.019989-4.7999878-3.1499939-10.0800171-3.1499939-15.6099854c0-22.1400146,17.9500122-40.0900002,40.0700073-40.0900002
			s40.0899963,17.950016,40.0899963,40.0900002c0,6.1300049-1.3800049,11.9400024-3.8500061,17.1400146h227.460022
			c-2.460022-5.2000122-3.8300171-11-3.8300171-17.1400146c0-22.1400146,17.9400024-40.0900002,40.0700073-40.0900002
			s40.0900269,17.950016,40.0900269,40.0900002c0,7.3400269-1.9899902,14.2199707-5.4199829,20.1199951l6.4099731-0.1599731
			h24.0700073c0,0,8.960022-4.7000122,9.4000244-7.4899902c0.4400024-2.7800293,2.9400024-24.9500122,0-29.2000122
			L660.8538818,80.56604z M484.1538696,69.7160339l-57.0299683,32.9299927
			c-3.9400024,2.2800293-8.8699951-0.5700073-8.8699951-5.1300049v-20.519989l-12.9500122,7.4700012l-31.4700012,18.1799927
			c-3.9400024,2.2800293-8.8800049-0.5700073-8.8800049-5.1300049V31.6660118c0-4.5499878,4.9400024-7.3999939,8.8800049-5.1199951
			l31.4700012,18.1700134l12.9500122,7.4700012v-20.519989c0-4.5499878,4.9299927-7.3999939,8.8699951-5.1199951
			l57.0300293,32.9199829c3.9400024,2.2799988,3.9400024,7.970005,0,10.2500038H484.1538696z"/>
		<path class="st0" d="M286.3739014,126.7260437c-16.230011,0-29.4400024-13.210022-29.4400024-29.4400024
			s13.2099915-29.4400024,29.4400024-29.4400024s29.4400024,13.2000122,29.4400024,29.4400024
			S302.6039124,126.7260437,286.3739014,126.7260437z"/>
		<path class="st0" d="M586.3139038,126.7260437c-16.2299805,0-29.4400024-13.210022-29.4400024-29.4400024
			s13.210022-29.4400024,29.4400024-29.4400024s29.4400024,13.2000122,29.4400024,29.4400024
			S602.5438843,126.7260437,586.3139038,126.7260437z"/>
	</g>
	<g>
		<path class="st1" d="M7.7839122,233.1060486c-5.2799988-3.3499756-7.2300034-8.2399902-5.8600006-14.6799927l3.9899979-18.9299927
			h58.4700012l-1.5500031,7.3400269c-1.0299988,4.9799805,0.8099976,7.4699707,5.5399933,7.4699707
			c2.4900055,0,4.4400024-0.6199951,5.8600006-1.8699951c1.4199982-1.2399902,2.4199982-3.3300171,3.0299988-6.25
			c0.3399963-1.6300049,0.5399933-2.9799805,0.5800018-4.0599976c0.0399933-1.0700073-0.1900024-2-0.7100067-2.7700195
			s-1.3500061-1.460022-2.5099945-2.0599976c-1.1600037-0.5999756-2.7700043-1.2000122-4.8300018-1.7999878l-37.2200012-11.460022
			c-8.5899963-2.6599731-14.1699982-5.4899902-16.7399979-8.5c-2.4899979-3.1799927-3.1800003-7.3800049-2.0599976-12.6199951
			l2.3199997-11.2000122c2.8300018-13.0499878,16.1800003-19.5700073,40.0500031-19.5700073h58.8499908
			c23.8699951,0,34.3899994,6.5300293,31.5500031,19.5700073l-2.5800018,12.3599854H85.8838959l0.2599945-1.289978
			c1.0299988-4.7199707-0.9499969-7.0800171-5.9199982-7.0800171c-2.0599976,0-3.8200073,0.4699707-5.2799988,1.4199829
			c-1.4600067,0.9500122-2.3600006,2.1900024-2.6999969,3.7299805c-0.1699982,0.7700195-0.2200012,1.4400024-0.1300049,2
			c0.0800018,0.5599976,0.4499969,1.0900269,1.0899963,1.6099854s1.5899963,1.0499878,2.8300018,1.6099854
			s2.9400024,1.1799927,5.0899963,1.8699951l43.1399994,13.9099731c2.6600037,0.9500122,4.8899994,2.0200195,6.6999969,3.2199707
			c1.8000031,1.2000122,3.1600037,2.6599731,4.0599976,4.3800049c0.8999939,1.7199707,1.3699951,3.7800293,1.4199982,6.1799927
			c0.0399933,2.4000244-0.2799988,5.2399902-0.9700012,8.5l-2.4499969,11.5900269
			c-1.7200012,7.8099976-5.8000031,13.5-12.2299957,17.0599976c-6.4400024,3.5599976-15.8800049,5.3400269-28.3300018,5.3400269
			H33.613884c-11.9300003,0-20.5400009-1.6699829-25.8199997-5.0200195L7.7839122,233.1060486z"/>
		<path class="st1" d="M163.283905,132.7860413h56.019989l-9.0100098,42.2399902l27.4299927-42.2399902h58.2099915
			l-32.4500122,48.5499878l11.4599915,56.0200195h-57.5700073l-10.1700134-47.7800293l-10.1700134,47.7800293h-56.0200043
			l22.2799988-104.5700073H163.283905z"/>
		<path class="st1" d="M302.6239014,132.7860413h57.1799927l-22.2799988,104.5700073h-57.1799927L302.6239014,132.7860413z"/>
		<path class="st1" d="M373.0739136,132.7860413h93.5c6.5200195,0,12,0.4299927,16.4199829,1.289978
			s7.8800049,2.1900024,10.3699951,3.9899902s4.0999756,4.1400146,4.8300171,7.0200195
			c0.7299805,2.8800049,0.6599731,6.289978-0.1900024,10.2399902l-6.0499878,28.8499756
			c-2.0599976,9.4500122-6.1799927,16.0100098-12.3599854,19.7000122c-6.0100098,3.6900024-15.7999878,5.539978-29.3599854,5.539978
			h-36.3200073l-5.9200134,27.9500122h-57.1799927L373.0939331,132.79599L373.0739136,132.7860413z M425.2338867,156.3560486
			l-6.3099976,29.3599854h7.4699707c2.8300171,0,4.9799805-0.5599976,6.4400024-1.6699829s2.5300293-3.0499878,3.2199707-5.789978
			l2.960022-14.2999878c0.5999756-2.75,0.4299927-4.7000122-0.5200195-5.8599854s-2.789978-1.7399902-5.539978-1.7399902h-7.7299805
			L425.2338867,156.3560486z"/>
	</g>
	<g>
		<path class="st2" d="M523.1138916,145.9260559h-13.9299927l2.4400024-11.2999878h54.789978l-2.4400024,11.2999878h-13.9299927
			l-8.1199951,38.2999878h-26.9400024l8.1199951-38.2999878H523.1138916z"/>
		<path class="st2" d="M572.223938,134.6260681h27.1199951l-3.5999756,16.7999878h6.9000244l3.5999756-16.7999878h27.1199951
			l-10.5700073,49.5999756h-27.1199951l4.5800171-21.5h-6.9000244l-4.5800171,21.5h-27.1199951L572.223938,134.6260681z"/>
		<path class="st2" d="M639.7139282,134.6260681h53.75l-2.4400024,11.2999878h-26.6300049l-1.1599731,5.4400024h24.1300049
			l-2.3800049,11.2999878h-24.1300049l-2.2000122,10.2600098h26.6300049l-2.3800049,11.2999878h-53.75l10.5700073-49.5999756
			H639.7139282z"/>
	</g>
	<g>
		<path class="st2" d="M502.9039307,192.5660706h40.7399902c2.8400269,0,5.2299805,0.1900024,7.1500244,0.5599976
			c1.9299927,0.3699951,3.4299927,0.9500122,4.5200195,1.7399902c1.0800171,0.789978,1.789978,1.8099976,2.0999756,3.0599976
			c0.3200073,1.25,0.289978,2.7399902-0.0800171,4.460022l-5.2199707,24.75
			c-0.9000244,4.0800171-2.6799927,6.9400024-5.3300171,8.5800171c-1.3099976,0.8200073-3.039978,1.4299927-5.1900024,1.8200073
			s-4.7000122,0.5900269-7.6599731,0.5900269h-40.7399902l9.710022-45.5599976L502.9039307,192.5660706z M523.1039429,227.6960754
			c1.3800049,0,2.3800049-0.2299805,2.9699707-0.7000122c0.5999756-0.4699707,1.0300293-1.3200073,1.289978-2.5499878
			l3.8699951-18.2399902c0.2600098-1.2299805,0.1900024-2.0800171-0.2199707-2.5499878s-1.3099976-0.7000122-2.6900024-0.7000122
			h-2.75l-5.2199707,24.75h2.75V227.6960754z"/>
		<path class="st2" d="M564.9139404,192.5660706h49.3800049l-2.2399902,10.3800049h-24.4699707l-1.0700073,4.9899902h22.1599731
			l-2.1900024,10.3800049h-22.1599731l-2.0200195,9.4299927h24.4699707l-2.1900024,10.3800049h-49.3800049L564.9139404,192.5660706z
			"/>
		<path class="st2" d="M629.3339233,192.5660706h39l1.5200195,45.5599976h-25.7600098l0.6199951-9.8800049h-7.1300049
			l-3.4799805,9.8800049h-25.7000122L629.3339233,192.5660706z M645.9439087,218.2060852l0.6699829-15.4899902
			l-5.9500122,15.4899902h5.2700195H645.9439087z"/>
		<path class="st2" d="M682.6339111,192.5660706h24.8599854l-7.5200195,35.1799927h15.3200073l-2.1900024,10.3800049h-40.1799927
			L682.6339111,192.5660706z"/>
		<path class="st2" d="M727.1939087,192.5660706h49.3800049l-2.2399902,10.3800049h-24.4699707l-1.0700073,4.9899902h22.1599731
			l-2.1900024,10.3800049h-22.1599731l-2.0200195,9.4299927h24.4699707l-2.1900024,10.3800049h-49.3800049L727.1939087,192.5660706z
			"/>
		<path class="st2" d="M808.1639404,222.5860291c0.2600098-1.2000122,0.1900024-2.039978-0.2199707-2.5200195
			c-0.4099731-0.4899902-1.3099976-0.7299805-2.6900024-0.7299805h-2.75l-3.9799805,18.7999878h-24.9099731l9.710022-45.5599976
			h40.3499756c2.8800049,0,5.289978,0.210022,7.2399902,0.6199951c1.9400024,0.4099731,3.4699707,1.0499878,4.5700073,1.9099731
			c1.0999756,0.8599854,1.8099976,1.9799805,2.1300049,3.3699951c0.3200073,1.3800049,0.2700195,3.0300293-0.1400146,4.9400024
			c-0.3400269,1.5300293-0.8099976,2.8699951-1.4299927,4.0100098s-1.4299927,2.1300049-2.4400024,2.9699707
			s-2.2299805,1.5300293-3.6500244,2.0800171c-1.4199829,0.539978-3.0900269,0.9799805-4.9899902,1.3200073
			c3.4799805,0.6400146,5.8400269,1.9299927,7.0700073,3.8699951c1.2299805,1.9500122,1.4400024,4.8599854,0.6199951,8.75
			l-2.4699707,11.7299805h-25.3099976l3.3099976-15.539978L808.1639404,222.5860291z M804.6239624,209.3960266h2.75
			c1.3099976,0,2.2800293-0.2399902,2.9199829-0.7299805c0.6400146-0.4899902,1.0800171-1.3099976,1.3499756-2.4699707
			c0.2600098-1.2299805,0.1900024-2.0800171-0.2199707-2.5499878s-1.3099976-0.7000122-2.6900024-0.7000122h-2.75
			l-1.3499756,6.4500122L804.6239624,209.3960266z"/>
		<path class="st2" d="M839.6138916,236.2760315c-2.2999878-1.460022-3.1500244-3.5900269-2.5499878-6.4000244l1.7399902-8.25
			h25.4799805l-0.6699829,3.2000122c-0.4500122,2.1699829,0.3499756,3.25,2.4099731,3.25
			c1.0800171,0,1.9400024-0.2700195,2.5499878-0.8099976c0.6199951-0.539978,1.0599976-1.4500122,1.3200073-2.7199707
			c0.1500244-0.710022,0.2299805-1.2999878,0.25-1.7700195c0.0200195-0.4699707-0.0800171-0.8699951-0.3099976-1.210022
			c-0.2199707-0.3400269-0.5900269-0.6400146-1.0900269-0.9000244s-1.210022-0.5200195-2.0999756-0.789978l-16.2199707-4.9899902
			c-3.7399902-1.1599731-6.1699829-2.3900146-7.289978-3.7000122c-1.0900269-1.3800049-1.3800049-3.2199707-0.9000244-5.5
			l1.0100098-4.8800049c1.2299805-5.6900024,7.0499878-8.5300293,17.4500122-8.5300293h25.6400146
			c10.4000244,0,14.9799805,2.8400269,13.75,8.5300293l-1.1199951,5.3900146h-25.3099976l0.1099854-0.5599976
			c0.4500122-2.0599976-0.4099731-3.0900269-2.5800171-3.0900269c-0.9000244,0-1.6699829,0.210022-2.2999878,0.6199951
			c-0.6400146,0.4099731-1.0300293,0.9500122-1.1799927,1.6300049c-0.0800171,0.3400269-0.0900269,0.6300049-0.0599976,0.8699951
			c0.039978,0.2399902,0.2000122,0.4799805,0.4799805,0.7000122c0.2800293,0.2199707,0.6900024,0.460022,1.2299805,0.7000122
			s1.2800293,0.5100098,2.2199707,0.8099976l18.7999878,6.0599976c1.1599731,0.4099731,2.1300049,0.8800049,2.9199829,1.4000244
			s1.3699951,1.1599731,1.7700195,1.9099731c0.3900146,0.75,0.5999756,1.6500244,0.6199951,2.6900024
			c0.0200195,1.0499878-0.1199951,2.2800293-0.4199829,3.7000122l-1.0700073,5.0499878
			c-0.75,3.4000244-2.5200195,5.8800049-5.3300171,7.4400024c-2.8099976,1.5499878-6.9199829,2.3300171-12.3400269,2.3300171
			h-25.6400146c-5.2000122,0-8.9500122-0.7299805-11.25-2.1900024L839.6138916,236.2760315z"/>
	</g>
</g>
</svg>
