<?xml version="1.0" encoding="utf-8"?>
<!-- Generator: Adobe Illustrator 25.4.1, SVG Export Plug-In . SVG Version: 6.00 Build 0)  -->
<svg version="1.1" id="Layer_1" xmlns="http://www.w3.org/2000/svg" xmlns:xlink="http://www.w3.org/1999/xlink" x="0px" y="0px"
	 width="449.1445312px" height="126.7260437px" viewBox="0 0 449.1445312 126.7260437"
	 style="enable-background:new 0 0 449.1445312 126.7260437;" xml:space="preserve">
<style type="text/css">
	.Drop_x0020_Shadow{fill:none;}
	.Round_x0020_Corners_x0020_2_x0020_pt{fill:#FFFFFF;stroke:#231F20;stroke-miterlimit:10;}
	.Live_x0020_Reflect_x0020_X{fill:none;}
	.Bevel_x0020_Soft{fill:url(#SVGID_1_);}
	.Dusk{fill:#FFFFFF;}
	.Foliage_GS{fill:#FFDD00;}
	.Pompadour_GS{fill-rule:evenodd;clip-rule:evenodd;fill:#44ACE1;}
	.st0{fill:#F37D20;}
</style>
<linearGradient id="SVGID_1_" gradientUnits="userSpaceOnUse" x1="-85.6409912" y1="-336.3016968" x2="-84.9338837" y2="-335.5946045">
	<stop  offset="0" style="stop-color:#DEDFE3"/>
	<stop  offset="0.1783311" style="stop-color:#DADBDF"/>
	<stop  offset="0.3611409" style="stop-color:#CECFD3"/>
	<stop  offset="0.546043" style="stop-color:#B9BCBF"/>
	<stop  offset="0.7323959" style="stop-color:#9CA0A2"/>
	<stop  offset="0.9181451" style="stop-color:#787D7E"/>
	<stop  offset="1" style="stop-color:#656B6C"/>
</linearGradient>
<g>
	<path class="st0" d="M447.7344055,80.56604c-2.9299927-4.2600098-14.5999756-36.4299965-79.1300049-39.6499977
		c-87.9299927-4.3999939-80.75-4.7000122-141.5300293-36.4100037c0,0-47.8599854-12.6300049-110.1099854,4.3999939
		C54.7243958,25.9360313,65.8743896,30.9260216,11.5543833,34.1660423c0,0-21.730011,28.769989-5.5899963,69.289978
		c0,0,18.5,9.4000244,26.730011,9.4000244c0.4400024,0,1.6799927,0.0200195,3.6300049,0.0499878
		c-2.019989-4.7999878-3.1499939-10.0800171-3.1499939-15.6099854c0-22.1400146,17.9500122-40.0900002,40.0700073-40.0900002
		s40.0899963,17.950016,40.0899963,40.0900002c0,6.1300049-1.3800049,11.9400024-3.8500061,17.1400146h227.460022
		c-2.460022-5.2000122-3.8300171-11-3.8300171-17.1400146c0-22.1400146,17.9400024-40.0900002,40.0700073-40.0900002
		s40.0900269,17.950016,40.0900269,40.0900002c0,7.3400269-1.9899902,14.2199707-5.4199829,20.1199951l6.4099731-0.1599731
		h24.0700073c0,0,8.960022-4.7000122,9.4000244-7.4899902c0.4400024-2.7800293,2.9400024-24.9500122,0-29.2000122
		L447.7344055,80.56604z M271.0343933,69.7160339l-57.0299683,32.9299927
		c-3.9400024,2.2800293-8.8699951-0.5700073-8.8699951-5.1300049v-20.519989l-12.9500122,7.4700012l-31.4700012,18.1799927
		c-3.9400024,2.2800293-8.8800049-0.5700073-8.8800049-5.1300049V31.6660118c0-4.5499878,4.9400024-7.3999939,8.8800049-5.1199951
		l31.4700012,18.1700134l12.9500122,7.4700012v-20.519989c0-4.5499878,4.9299927-7.3999939,8.8699951-5.1199951
		l57.0300293,32.9199829c3.9400024,2.2799988,3.9400024,7.970005,0,10.2500038H271.0343933z"/>
	<path class="st0" d="M73.254425,126.7260437c-16.230011,0-29.4400024-13.210022-29.4400024-29.4400024
		S57.0244141,67.8460388,73.254425,67.8460388s29.4400024,13.2000122,29.4400024,29.4400024
		S89.484436,126.7260437,73.254425,126.7260437z"/>
	<path class="st0" d="M373.1944275,126.7260437c-16.2299805,0-29.4400024-13.210022-29.4400024-29.4400024
		s13.210022-29.4400024,29.4400024-29.4400024s29.4400024,13.2000122,29.4400024,29.4400024
		S389.424408,126.7260437,373.1944275,126.7260437z"/>
</g>
</svg>
