<?xml version="1.0" encoding="utf-8"?>
<!-- Generator: Adobe Illustrator 25.4.1, SVG Export Plug-In . SVG Version: 6.00 Build 0)  -->
<svg version="1.1" id="Layer_1" xmlns="http://www.w3.org/2000/svg" xmlns:xlink="http://www.w3.org/1999/xlink" x="0px" y="0px"
	 width="941px" height="777px" viewBox="0 0 941 777" style="enable-background:new 0 0 941 777;" xml:space="preserve">
<style type="text/css">
	.st0{fill:none;stroke:#1A2235;stroke-width:2;}
	.st1{fill:#FF7E15;}
</style>
<g>
	<path class="st0" d="M60.1543999,118.8669968L881.848999-17.2098999c32.6500244-5.4069004,63.5009766,16.6777,68.90802,49.3274002
		l111.7730103,674.9285278c6.9000244,41.677002-30.3300781,77.2189941-71.6460571,68.3889771L276.196991,622.6640015
		c-15.5799866-3.3300171-29.1919861-12.7280273-37.8279877-26.1149902L12.7320995,246.7769928
		C4.40693,233.871994,1.35448,218.2630005,4.2048101,203.1719971l6.8581896-36.3099976
		C15.7313995,142.1459961,35.3390007,122.9759979,60.1543999,118.8669968z"/>
	<path class="st1" d="M91.6043015-10h822.4727173C947.1719971-10,974,16.8283005,974,49.922699v664.5333252
		c0,42.1329956-42.3330078,71.1090088-81.6099854,55.8599854L220.9530029,509.6419983
		c-14.8450012-5.7640076-26.7850037-17.1990051-33.1849976-31.7810059L24.7371006,106.362999
		c-6.2458-14.2318954-6.7174015-30.3342972-1.3150997-44.9076996l11.9958-32.3604965
		C44.1286011,5.5959301,66.5429001-10,91.6043015-10z"/>
</g>
</svg>
