<svg width="620" height="957" viewBox="0 0 620 957" fill="none" xmlns="http://www.w3.org/2000/svg">
<path fill-rule="evenodd" clip-rule="evenodd" d="M-213.177 235.152C-156.611 169.69 -81.658 128.776 -4.15143 90.3341C77.8618 49.6575 162.208 -17.3167 251.011 4.92563C339.778 27.1588 371.569 135.18 435.663 200.493C495.224 261.186 592.818 292.958 614.39 375.212C635.957 457.447 585.094 540.449 544.396 615.092C509.263 679.53 448.192 719.996 397.477 773.048C338.467 834.778 305.126 933.24 221.914 952.437C138.668 971.641 56.6697 915.207 -14.6121 868.115C-79.4897 825.254 -115.334 755.867 -165.524 696.478C-226.649 624.148 -332.014 575.219 -341.744 481.021C-351.443 387.124 -274.896 306.578 -213.177 235.152Z" fill="#F9F8F8"/>
</svg>
