<svg width="878" height="1181" viewBox="0 0 878 1181" fill="none" xmlns="http://www.w3.org/2000/svg">
<path fill-rule="evenodd" clip-rule="evenodd" d="M-149.791 290.565C-79.9812 209.776 12.5214 159.282 108.175 111.84C209.391 61.6392 313.485 -21.0161 423.081 6.43393C532.631 33.8727 571.865 167.186 650.967 247.791C724.473 322.694 844.918 361.905 871.541 463.418C898.158 564.908 835.385 667.344 785.159 759.463C741.799 838.988 666.429 888.929 603.84 954.403C531.014 1030.59 489.866 1152.1 387.171 1175.79C284.434 1199.49 183.237 1129.85 95.2652 1071.73C15.1973 1018.83 -29.039 933.2 -90.9805 859.905C-166.418 770.64 -296.452 710.255 -308.461 594.002C-320.431 478.12 -225.96 378.714 -149.791 290.565Z" fill="#F9F8F8"/>
</svg>
