<svg width="868" height="1110" viewBox="0 0 868 1110" fill="none" xmlns="http://www.w3.org/2000/svg">
<path fill-rule="evenodd" clip-rule="evenodd" d="M35.2555 523.739C59.3052 419.71 117.561 331.889 180.028 245.296C246.128 153.669 299.63 31.993 409.373 5.1356C519.07 -21.7108 615.974 77.8952 723.547 112.28C823.51 144.233 948.336 122.715 1019.25 200.079C1090.14 277.425 1082.42 397.316 1080.98 502.228C1079.73 592.797 1036.37 672.135 1011.56 759.249C982.696 860.61 1003 987.287 923.223 1056.16C843.414 1125.06 721.411 1110.67 616.485 1100.32C520.986 1090.89 441.905 1035.79 352.92 999.864C244.548 956.11 101.361 963.374 36.4972 866.154C-28.1596 769.244 9.0152 637.244 35.2555 523.739Z" fill="#eae6ff"/>
</svg>
